<svg xmlns="http://www.w3.org/2000/svg" xmlns:xlink="http://www.w3.org/1999/xlink" width="653.908" height="380" viewBox="0 0 653.908 380">
  <defs>
    <clipPath id="clip-path">
      <rect id="Rectangle_14529" data-name="Rectangle 14529" width="468.878" height="358.492" fill="none"/>
    </clipPath>
  </defs>
  <g id="Group_58366" data-name="Group 58366" transform="translate(-635.848 -207.001)">
    <g id="Group_58362" data-name="Group 58362" transform="translate(713.849 228.51)">
      <g id="Group_58361" data-name="Group 58361" clip-path="url(#clip-path)">
        <path id="Path_103567" data-name="Path 103567" d="M468.878,220.717c0,1.348-104.959,2.438-234.437,2.438S0,222.065,0,220.717s104.962-2.438,234.441-2.438,234.437,1.093,234.437,2.438" transform="translate(0 135.336)" fill="#b3b3b3"/>
        <path id="Path_103568" data-name="Path 103568" d="M225.31,244.849l38.061-27.4.81-31.961-5.375-15.231-60.133-6.849-43.387,30.447,12.743,40.266,19.988,7.689Z" transform="translate(96.279 101.314)" fill="#e6e6e6"/>
        <path id="Path_103569" data-name="Path 103569" d="M252.406,246.295l19.788-32.732L259.3,177.036,258.494,209l-38.061,27.4-37.3-3.042-19.988-7.689,6.287,19.865Z" transform="translate(101.156 109.765)" fill="#b3b3b3"/>
        <path id="Path_103570" data-name="Path 103570" d="M22.456,222.978l5.391-3.882.115-4.528-.763-2.156-8.518-.97-6.146,4.314,1.806,5.7,2.832,1.089Z" transform="translate(7.772 131.097)" fill="#e6e6e6"/>
        <path id="Path_103571" data-name="Path 103571" d="M26.293,223.183l2.8-4.635-1.826-5.178-.115,4.53-5.391,3.882-5.284-.431-2.83-1.09.891,2.817Z" transform="translate(8.464 132.293)" fill="#b3b3b3"/>
        <path id="Path_103572" data-name="Path 103572" d="M136.716,234.571,156,228.007l10.4-11.7-23.6-35.017-53.972-1.307L57.556,209.453l12.821,16.485,16.1,7.872Z" transform="translate(35.686 111.592)" fill="#e6e6e6"/>
        <path id="Path_103573" data-name="Path 103573" d="M137.138,226.118l13.955-15.7-19.283,6.563-50.237-.76-16.1-7.873,13.819,17.768Z" transform="translate(40.592 129.18)" fill="#b3b3b3"/>
        <path id="Path_103574" data-name="Path 103574" d="M278.567,227.792l13.564-3.7,3.18-8.478-10.656-20.551-30.448,3.805-19.029,18.269,4.044,5.168,14.985,3.964Z" transform="translate(145.814 120.942)" fill="#e6e6e6"/>
        <path id="Path_103575" data-name="Path 103575" d="M286.914,223.454l3.671-9.79-13.564,3.7-24.362-1.523-14.985-3.963,9.657,12.336Z" transform="translate(147.361 131.369)" fill="#b3b3b3"/>
        <path id="Path_103576" data-name="Path 103576" d="M42.748,223.709l-8.61-2.347-2.019-5.382,7.525-10.758,18.561.13,12.077,11.594-2.566,3.282L58.2,222.741Z" transform="translate(19.914 127.241)" fill="#e6e6e6"/>
        <path id="Path_103577" data-name="Path 103577" d="M35.7,221.833l-2.331-6.214,8.61,2.347L57.432,217l9.511-2.514-6.129,7.83Z" transform="translate(20.687 132.984)" fill="#b3b3b3"/>
        <path id="Path_103578" data-name="Path 103578" d="M142.056,90.785l-1.142,208.987h12.558l-.718-208.318Z" transform="translate(87.369 56.288)" fill="#e6e6e6"/>
        <path id="Path_103579" data-name="Path 103579" d="M152.754,91.41l-8.831-.554,6.759,3.848-1.905,201.059-4.946,1.471-2.89-3.119-.028,5.613h12.558Z" transform="translate(87.369 56.332)" fill="#b3b3b3"/>
        <path id="Path_103580" data-name="Path 103580" d="M97.143,45.67l1.14,60.132,43.387,42.627,73.452-.761,36.154-44.91-.757-57.468L204.465,0H140.528Z" transform="translate(60.23 0)" fill="#bebebe"/>
        <path id="Path_103581" data-name="Path 103581" d="M103.132,45.688l1,52.56,37.925,37.259,64.2-.664,31.6-39.256L237.2,45.354,196.939,5.769H141.055Z" transform="translate(63.944 3.577)" fill="#5b6f8e"/>
        <path id="Path_103582" data-name="Path 103582" d="M141.38,134.927l73.452-.761,36.154-44.91-.757-57.468-10.182-10.01,7.575,11.509-.82,55.567-34.255,39.959-71.167,2.663L101.09,92.6l-3.48-20.5L97.993,92.3Z" transform="translate(60.52 13.502)" fill="#b3b3b3"/>
        <path id="Path_103583" data-name="Path 103583" d="M230.494,26.312l6.414,6.307.661,50.232-31.6,39.256-64.2.664L103.842,85.512l-.245-12.8,2.482,11.8,36.535,34.25,59.754-3.8,30.445-32.732,1.9-48.335Z" transform="translate(64.232 16.314)" fill="#3b4c67"/>
        <path id="Path_103584" data-name="Path 103584" d="M117.654,33.454l-3.58,26.013,14.8.478-.478,15.75H137.7l-1.432-16.228h5.012l-.718-5.967-4.295-.476-.956-7.877-5.965-.24-.24,8.832-7.159-.24L124.1,33.216Z" transform="translate(70.728 20.595)" fill="#fff"/>
        <path id="Path_103585" data-name="Path 103585" d="M162.142,33.454,158.56,59.467l14.8.478-.481,15.75h9.309l-1.434-16.228h5.016l-.718-5.967-4.3-.476-.956-7.877-5.963-.24-.241,8.832-7.157-.24,2.147-20.284Z" transform="translate(98.31 20.595)" fill="#fff"/>
        <path id="Path_103586" data-name="Path 103586" d="M163.82,33.855l-28.161-1.67,3.1,44.149L165,75.449Zm-19.09,36.274-1.435-30.785,13.841.716.228,29.424Z" transform="translate(84.111 19.955)" fill="#fff"/>
      </g>
    </g>
    <g id="Group_58363" data-name="Group 58363" transform="translate(635.848 264.634)">
      <path id="Path_103587" data-name="Path 103587" d="M93.008,91.251l24.508-17.646.52-20.582-3.46-9.807L75.852,38.805,47.912,58.411l8.2,25.93,12.872,4.952Z" transform="translate(-7.231 -38.805)" fill="#e2eaf8"/>
      <path id="Path_103588" data-name="Path 103588" d="M111.006,93.138l12.745-21.077-8.3-23.522-.52,20.582L90.42,86.767,66.4,84.806l-12.872-4.95,4.049,12.793Z" transform="translate(-4.643 -34.32)" fill="#e2eaf8"/>
      <path id="Path_103589" data-name="Path 103589" d="M71.04,86.051l12.418-4.227,6.7-7.536L74.962,51.74,40.2,50.9,20.063,69.877l8.256,10.615,10.37,5.07Z" transform="translate(-20.063 -33.234)" fill="#e2eaf8"/>
      <path id="Path_103590" data-name="Path 103590" d="M71.866,82.6l8.986-10.108L68.435,76.717l-32.351-.489-10.368-5.07,8.9,11.442Z" transform="translate(-17.458 -23.9)" fill="#e2eaf8"/>
      <path id="Path_103591" data-name="Path 103591" d="M116.13,83l8.735-2.382,2.048-5.46-6.861-13.234-19.606,2.451L88.192,76.137l2.6,3.329,9.651,2.553Z" transform="translate(11.329 -28.154)" fill="#e2eaf8"/>
      <path id="Path_103592" data-name="Path 103592" d="M121.681,81.386l2.363-6.3-8.735,2.382-15.685-.98-9.65-2.553,6.218,7.946Z" transform="translate(12.149 -22.621)" fill="#e2eaf8"/>
      <path id="Path_103593" data-name="Path 103593" d="M196.856,79.032c0,1.245-44.069,2.254-98.427,2.254S0,80.277,0,79.032,44.067,76.78,98.429,76.78s98.427,1.008,98.427,2.252" transform="translate(0 -22.259)" fill="#e2eaf8"/>
    </g>
    <g id="Group_58364" data-name="Group 58364" transform="translate(940.042 207.001)">
      <path id="Path_103594" data-name="Path 103594" d="M198.582,42.273l-10.117-2.758-2.372-6.322,8.843-12.643,21.81.155L230.935,34.33l-3.016,3.852-11.172,2.958Z" transform="translate(-149.654 9.468)" fill="#e2eaf8"/>
      <path id="Path_103595" data-name="Path 103595" d="M190.456,41.254l-2.739-7.3,10.117,2.758L216,35.579,227.17,32.62l-7.2,9.2Z" transform="translate(-148.906 15.028)" fill="#e2eaf8"/>
      <path id="Path_103596" data-name="Path 103596" d="M249.277,52.447,273.784,34.8l.523-20.582L270.843,4.41,232.119,0,204.178,19.606l8.206,25.931,12.873,4.95Z" transform="translate(-141.321 0)" fill="#e2eaf8"/>
      <path id="Path_103597" data-name="Path 103597" d="M267.273,54.335l12.748-21.077-8.3-23.524L271.2,30.316,246.688,47.962,222.669,46,209.8,41.052l4.049,12.793Z" transform="translate(-138.734 4.484)" fill="#e2eaf8"/>
      <path id="Path_103598" data-name="Path 103598" d="M272.4,44.194l8.735-2.382,2.049-5.46-6.861-13.234-19.606,2.451L244.458,37.332l2.6,3.328,9.653,2.555Z" transform="translate(-122.764 10.65)" fill="#e2eaf8"/>
      <path id="Path_103599" data-name="Path 103599" d="M277.95,42.582l2.362-6.3-8.735,2.382-15.684-.98-9.651-2.555,6.22,7.946Z" transform="translate(-121.942 16.183)" fill="#e2eaf8"/>
      <path id="Path_103600" data-name="Path 103600" d="M358.005,40.229c0,1.245-44.072,2.252-98.429,2.252s-98.429-1.008-98.429-2.252,44.07-2.254,98.429-2.254,98.429,1.009,98.429,2.254" transform="translate(-161.148 17.495)" fill="#e2eaf8"/>
    </g>
    <g id="Group_58365" data-name="Group 58365" transform="translate(1171.402 316.624)">
      <path id="Path_103601" data-name="Path 103601" d="M351.511,89.469l6.082-1.656,1.427-3.8-5.316-7.6-13.113.092-8.529,8.19,1.811,2.317,6.718,1.778Z" transform="translate(-262.575 -58.362)" fill="#e2eaf8"/>
      <path id="Path_103602" data-name="Path 103602" d="M355.376,88.857l1.646-4.388-6.082,1.656-10.919-.681L333.3,83.667l4.331,5.53Z" transform="translate(-262.002 -55.019)" fill="#e2eaf8"/>
      <path id="Path_103603" data-name="Path 103603" d="M325.83,95.588,311.094,84.978,310.782,72.6l2.08-5.9,23.28-2.654,16.8,11.788-4.931,15.589-7.74,2.977Z" transform="translate(-272.378 -64.055)" fill="#e2eaf8"/>
      <path id="Path_103604" data-name="Path 103604" d="M315.028,96.72l-7.663-12.67,4.993-14.143.311,12.375L327.4,92.89l14.438-1.177,7.74-2.978-2.437,7.692Z" transform="translate(-273.954 -61.358)" fill="#e2eaf8"/>
      <path id="Path_103605" data-name="Path 103605" d="M305.972,90.624l-5.25-1.43-1.234-3.284,4.128-7.957L315.4,79.427l7.364,7.073-1.563,2-5.8,1.537Z" transform="translate(-277.582 -57.651)" fill="#e2eaf8"/>
      <path id="Path_103606" data-name="Path 103606" d="M301.754,89.655l-1.421-3.789,5.25,1.432,9.432-.589,5.8-1.535-3.741,4.778Z" transform="translate(-277.194 -54.325)" fill="#e2eaf8"/>
      <path id="Path_103607" data-name="Path 103607" d="M284.492,88.242c0,.748,26.5,1.354,59.177,1.354s59.176-.606,59.176-1.354-26.495-1.356-59.176-1.356-59.177.606-59.177,1.356" transform="translate(-284.492 -53.535)" fill="#e2eaf8"/>
    </g>
  </g>
</svg>
