<?xml version="1.0" encoding="utf-8"?>
<!-- Generator: Adobe Illustrator 25.4.1, SVG Export Plug-In . SVG Version: 6.00 Build 0)  -->
<svg version="1.1" id="Layer_1" xmlns="http://www.w3.org/2000/svg" xmlns:xlink="http://www.w3.org/1999/xlink" x="0px" y="0px"
	 viewBox="0 0 512 512" style="enable-background:new 0 0 512 512;" xml:space="preserve">
<style type="text/css">
	.st0{fill-rule:evenodd;clip-rule:evenodd;fill:#359642;}
	.st1{fill-rule:evenodd;clip-rule:evenodd;fill:#FEFEFE;}
</style>
<g>
	<circle class="st0" cx="256.5" cy="256.5" r="255.5"/>
	<path class="st1" d="M66.5,145.9c-0.9,11.9-2,33,8.2,35.2c12.3,1.1,5.5-20.8,9.9-24.8c0.8-1.9,2.4-1.9,2.5,0.5v18.7
		c-0.1,6,3.9,7.8,7,9c3.2-0.2,5.4-0.1,6.6,3.1c0.5,10.7,1,21.4,1.5,32.1c0,0,7.5,2.2,7.8-18c0.3-11.9-2.4-21.8-0.8-24.2
		c0.1-2.2,2.9-2.4,5-1.2c3.2,2.2,4.6,5,9.6,3.9c7.6-2.1,12.1-5.7,12.2-11.6c-0.4-5.5-1-11.1-3.4-16.6c0.3-1-1.5-3.6-1.1-4.6
		c1.4,2.2,3.4,1.9,3.8,0c-1.3-4.3-3.3-8.3-6.5-10.1c-2.7-2.3-6.7-1.8-8.1,3.2c-0.6,5.5,2.1,12.3,6.3,17.8c0.9,2.1,2.1,5.7,1.5,9
		c-2.2,1.1-4.4,0.7-6.2-1.2c0,0-6.1-4.6-6.1-5.5c1.6-10.3,0.4-11.5-0.5-14.4c-0.6-3.9-2.5-5.2-4-7.7c-1.5-1.7-3.5-1.7-4.5,0
		c-2.7,4.6-1.4,14.5,0.5,19c1.4,4.1,3.5,6.6,2.5,6.6c-0.8,2.3-2.6,1.7-3.8-0.9c-1.8-5.5-2.1-13.8-2.1-17.4
		c-0.6-4.6-1.2-14.4-4.2-16.9c-1.8-2.4-4.6-1.2-5.6,1.1c-0.2,4.5-0.2,9.1,0.3,13.3c2.1,7.3,2.7,13.9,3.7,21.4
		c0.3,10.1-5.8,4.4-5.6-0.7c1.4-6.4,1-16.7-0.2-19.3c-1-2.7-2.2-3.3-4.6-2.8c-1.9-0.2-6.9,5.2-8.2,14.2c0,0-1.2,4.6-1.7,8.8
		c-0.7,4.6-3.7,7.8-5.9-0.7C70.7,157.6,69.6,142.3,66.5,145.9z"/>
	<path class="st1" d="M99.8,194.8c-10.8,5.4-21.3,10.3-32,15.4c0.4-7.2,15.2-20.3,25.3-20.5C99.7,189.9,98,192.2,99.8,194.8z"/>
	<path class="st1" d="M125.4,194.3c1-0.1,2.3,0.3,3,1.8c0.5,1.3,0,2.7-0.6,3.3l0,0c0,0,0,0-0.1,0c-0.4,0.7-1.9,0.4-2.9,0.4
		c-1.3,0-1.9-0.3-2.7-1.3c-0.4-1.1,0.7-2.2,1.2-3.2c0,0,0,0,0,0c0.1,0,0.1-0.2,0.2-0.3C124,194.7,124.7,194.4,125.4,194.3
		L125.4,194.3z M140.6,127.3c-0.6,0-1.3,0.4-2,0.6c-2.6,0.7-5.1,3.1-4.3,7.4c3.1,18.8,5,33,8.1,51.7c0.5,2.2-1.3,5.1-3.7,4.9
		c-4.1-2.8-5-8.4-11.9-8c-5,0.1-10.7,5.5-11.4,10.7c-0.8,4.2-1.1,8.7,0,12.2c3.6,4.3,7.8,3.8,11.4,2.9c3-1.2,5.5-4.3,6.6-3.6l0,0
		c0.7,1.2-0.1,11-14.2,18.5c-8.7,3.9-15.6,4.9-19.4-2.2c-2.3-4.5,0.2-21.4-5.5-17.5c-16.8,43.4,39.4,49.5,45.7,1.8
		c0.4-1.3,1.7-2.7,2.6-2.3c0.4,0.2,0.7,0.7,0.8,1.7c-1.3,43.1-43.5,46-50.6,32.5c-1.8-3.3-2.3-10.3-2.5-14.6c-0.3-2.7-1-4.2-1.7-4.8
		c-1.7-1.2-4,2.1-4.5,7.9c-0.7,4.7-0.5,6-0.5,10.4c2.2,34.3,56.6,19.6,65.4-8.7c4.3-14.6-0.1-25.5,1.4-26.9c0,0,0,0,0.1,0
		c0,0,0,0,0.1,0h0c0.1,0,0.1-0.1,0.1-0.1c5.5,5.8,13,0.7,14.7-1.2c0.8-1,2.5-1.6,3.8-0.4c4.2,3.1,11.6,1.6,13.1-3.7
		c0.9-5.2,1.6-10.6,1.8-16.2c-2.8,0.8-5,1.5-5.9,2.5c-0.2,0.2-0.4,0.5-0.4,0.8c-0.2,1.4-0.4,3.1-0.7,4.6c0,0.1-0.1,0.3-0.1,0.4
		c-0.1,0.2-0.3,0.3-0.5,0.4c-1,0.6-2.6,0.2-2.8-1.2c-1.3-5.8-6.6-6.7-9.9,2.4c-2.2,1.8-6.2,2.1-6.6-0.4c0.6-6.2-2-7-6.9-4.2
		c-1.6-12.2-3.2-23.9-4.8-36.1c2.1,0,3.9,1.5,5.9-0.8c-2.1-6.4-6.4-19.5-8.8-20.7h0c-0.1-0.1-0.3-0.3-0.4-0.4c0,0-0.1,0-0.2-0.1
		c0,0-0.1,0-0.1,0c-0.1-0.1-0.3-0.1-0.3-0.2C141,127.3,140.8,127.2,140.6,127.3z"/>
	<path class="st1" d="M177.7,131.9c1-0.1,2.1,0.9,2.7,2.1c0.6,1.3,0.3,2.7-0.7,3c-1,0.2-2.3-0.7-3-2c-0.6-1.4-0.3-2.7,0.7-3
		C177.6,132,177.6,131.9,177.7,131.9L177.7,131.9z M178.4,126.3c-1.4,0.1-2.7,0.5-3.8,1c-2.8,2.8-3.4,6.9-1.3,9.7
		c2.1,0.9,4.3,3.2,2.8,4.3c-6,6.4-21.8,17.2-22.6,19.3l0,0v0.1c0.1,0,0.1,0.1,0.1,0.1l0,0h0h0c0.8,0.6,10.6,0.6,11.7,0.1v-0.1h0
		c3.4-1.2,19.4-19.6,19.4-19.6c-0.8-0.7-1.6-1.2-2.4-1.9c-0.9-0.7-0.8-1.5,0-2.3c3.9-2.3,2.7-7.4,0.7-9.8
		C181.5,126.4,179.9,126.2,178.4,126.3z"/>
	<path class="st1" d="M68.9,225.6c-6,9.6-6.5,23.9-3.2,28.1c1.8,2,4.6,3,6.8,2.2c3.7-1.6,5.4-9.3,4.5-12c-1.3-2-2.2-2.3-3.5-0.6
		c-2.6,5.3-3.8,1.6-4-1.4c-0.4-5.7,0.1-10.9,0.7-15.1C70.9,222.6,70.3,223.8,68.9,225.6z"/>
	<path class="st1" d="M325.5,210.3c-5.8-12.5-13.8-24.9-16.4-29.6c-2.6-4.8-21.9-32.7-24.7-36c-6.3-7.4,10.2,3.2-2.1-11.7
		c-4.6-4-4.9-4.2-8.9-7.4c-1.9-1.4-6.7-3.9-7.5,0.2c-0.5,3.8-0.2,5.8,0.4,8.9c0.5,2,3.5,5.6,5,7.5c19.6,26.3,36.9,52.8,53.7,86.2
		C327.6,227.2,327,212.4,325.5,210.3z"/>
	<path class="st1" d="M300,252.1c-1.2,1.2,2.8,6.8,7.9,6.7c8.6-0.9,16.2-5.8,23.2-18.5c1.9-3,5.2-9.3,5.3-14.3
		c0.6-28.8-1.4-51.3-5.8-72.2c-0.3-2-0.1-4.4,0.2-5c0.6-0.7,2.5,0,3.4-1.6c1.5-1.5-3.9-14-6.9-18.8c-1.1-2.1-1.5-3.6-3.3,0.2
		c-1.9,3.2-3.2,8.7-3,13.7c4.1,28.3,5.3,53.3,8.1,81.6c0.2,2.8-0.2,6.8-2,8.4C320.4,239.4,310.6,248.1,300,252.1z"/>
	<path class="st1" d="M416.2,251.9c-6.2,3.6-6.2,7.7-1.2,7.8c8.6-1,18.8-1.7,25.8-12.3c1.9-3,4.1-11,4.1-15.9
		c0.7-28.8-0.4-57.1-4.7-78c-0.3-1.9-1.2-6.6-0.9-7.3c0.6-1.3,3.4,0.2,4.3-1.4c1.5-1.4-7.2-12.8-10.3-17.5c-1.1-2.1-1.4-3.6-3.2,0.3
		c-1.9,3.1-2.6,8.7-1.8,13.5c4.5,30.9,7.9,60.8,8.6,88.1c-0.4,2.7-0.5,4.1-1.7,7.2c-2.6,3.6-5.7,7.8-8.4,9.9
		C424.1,248.3,418.2,250.3,416.2,251.9z"/>
	<path class="st1" d="M420.8,224.2c-0.1-7.2,0.2-13.5-0.1-18.9c-0.2-5.3-2.7-25.6-3.5-29.9c-0.8-4.4-1.7-10.9-2.9-16.1
		c-0.4-2-1.5-8.5-1.1-9.2c0.5-1.4,2.4,0.1,3.3-1.6c1.4-1.5-4.9-17.9-8.1-22.6c-1.1-2.2-3.3-1.4-5.8,2c-2.5,2.2-1.6,7.3-0.6,12.2
		c6.2,32.2,10.8,66,9.8,96.7C411.5,239.5,420.9,229.1,420.8,224.2z"/>
	<path class="st1" d="M375.3,184.3c-3.9-0.1-12.1-7.5-14.4-11.9c-0.9-2.5-0.3-5,0.5-6.4c1.4-0.9,3.7-2,5.3-0.9c0,0,1.7,2.3,1.4,2.6
		c2.1,1,3,0.4,3.3-0.5c0.1-1.4-0.7-2.3-0.7-4c0.9-4.6,6.1-5.2,8-2.3c1.4,1.7,2,5.4,2.2,7.9c0,1.3-2.1-0.2-3.3,0.1
		c-1.2,0.3-1.5,1.6-1.6,2.8C375.7,175.1,375.3,180.3,375.3,184.3z"/>
	<path class="st1" d="M303.6,232.3c1.1-9.9-0.4-29.9-0.5-35.7c-0.4-13.7-2.6-40.1-3.7-44.4c-1.2-8.4,3.4,0.9,2.7-4
		c-1.5-8.3-6.1-13.9-11.5-21.5c-1.7-2.4-1.7-3-4.4,0.6c-3,6.7-0.4,11.4,0.4,16.7c3.9,17.1,6.2,32.9,7.2,48.5
		c1.1,15.6,1.4,35.1,0.4,51.6C297.2,244.1,301.9,239.3,303.6,232.3z"/>
	<path class="st1" d="M434.1,216.5c-6.8-11.5-17.2-25-19.9-29.6c-2.8-4.6-26.2-38.9-29.1-41.9c-8.6-8.9,3.9-1.4-1.6-8.5
		c-4.7-5.1-6.1-6.7-10.1-9.8c-2-1.2-3.2-3.8-3.9,0.4c-0.3,3.8-0.6,8.1-0.3,11.2c0,1.8,1.8,5,3.4,6.9c20.6,25.5,43.3,56.6,61.4,89.2
		C436.6,233.3,435.7,218.5,434.1,216.5z"/>
	<path class="st1" d="M355.5,375.2C355.5,375.2,355.5,375.2,355.5,375.2c9.3,0.4,18.1,0.1,27.5,0.5c1.5,1.3,0.7,4.2-0.2,4.7
		c0,0.1-0.1,0.1-0.1,0.1h-0.1c-0.1,0-0.2,0-0.2,0c-3-0.1-4.8-0.1-7.8-0.2c0-0.2-0.1-0.3-0.1-0.5c-0.7-2.2-5.9-1.9-7.2-0.2h0l0,0.1
		c0,0,0,0.1-0.1,0.2c0,0,0,0.1,0,0.2c0,0.1,0,0.2,0,0.3c-4.1,0.4-7.8-0.1-11.9-0.4C353.9,378.6,354.1,375.9,355.5,375.2L355.5,375.2
		z M351.1,352.2L351.1,352.2c-6.1,1.5-5.9,7.8-2,10.6c-64,0-162.2-1-183.2-1c-11.8,0-49.1-1.4-49.7-1.4c8,11.6,19.6,14,34.7,14.3
		c28.4,0,160.1-0.3,197.5-0.3c-2.6,4.7,0.3,12.2,2.4,13.6c0.1,0,0.1,0.1,0.2,0.1c0.1,0.1,0.1,0.1,0.2,0.1h0.1
		c2.5,0.6,3.6-1.2,4.5-2.4c4,0.3,26.6,0.6,28.7-0.1h0c1.4,2.1,2.8,4,5.5,3.7c4.7-1,8.3-1.5,8.5-11c0,0-0.5-16.1-11.1-15.1
		c-2.5,0.3-9.5,1-9.5,1c-8.2-0.9-14.2-1-23.3-1.4c0.9-1,2.3-5.4,0.5-6.9c-0.5-0.4-1.2-0.6-2.2-0.6l0,0h-0.1h-0.1
		c-0.1,0-0.2-0.1-0.2-0.2c0,0,0,0,0-0.1c-0.5-0.5-0.7-2.2-1-2.8h-0.1H351.1L351.1,352.2z"/>
	<path class="st1" d="M189.3,136.1c-6.2,17.7,3.6,37.3,10.4,35.5c4.9,1.9,8-7.4,10.1-17.6c1.4-2.9,2.4-3.2,3.1-1.7
		c-0.2,13.7,1,16.7,4.5,20.8c7.8,6,14.3,0.8,14.8,0.2c0.5-0.4,6.1-6,6.1-6c1.3-1.4,3.1-1.5,5.1-0.2c1.8,1.6,1.6,4.6,5.6,6.5
		c3.3,1.4,10.4,0.4,12.1-2.5c2.2-3.8,2.7-5.1,3.7-6.5c1.6-2.2,4.3-1.2,4.3-0.5c-0.2,1.2-1.8,2.3-0.8,4.5c1.9,1.4,2.4,0.5,3.5,0.2
		c4-1.9,6.9-10.5,6.9-10.5c0.1-3.3-1.6-3-2.9-2.2c-1.5,0.9-1.6,1.2-3.1,2.2c-1.9,0.2-5.7,1.5-7.5-1.3c-1.9-3.5-1.9-8.3-3.4-11.8
		c0-0.2-2.5-5.4-0.1-5.8c1.1,0.2,3.6,0.9,4.1-1.2c1.3-2-2.7-7.9-5.3-10.8c-2.3-2.5-5.6-2.8-8.6-0.3c-2.1,1.9-1.9,4.3-2.3,6.3
		c-0.5,2.4-0.4,5.4,2.1,8.6c2.2,4.3,6.1,9.8,4.8,17.4c0,0-2.3,3.7-6.3,3.3c-1.6-0.4-4.4-1.1-5.8-11.7c-1-8.1,0.3-19.6-3.2-24.7
		c-1.2-3.3-2.1-6.4-5.1-0.8c-0.9,2.1-4.3,5.4-1.8,12.1c2,4.3,2.9,11.1,1.9,18.9c-1.4,2.2-1.7,3-3.6,5.2c-2.6,2.7-5.5,2-7.7,1
		c-2.1-1.4-3.7-2.1-4.6-6.4c0.1-7,0.5-18.4-0.8-20.9c-1.8-3.9-5-2.4-6.3-1.3c-6.4,5.8-9.6,15.7-11.5,23.5c-1.8,5.7-3.7,4.1-5,1.7
		C193.4,155.8,193.2,132.2,189.3,136.1z"/>
	<path class="st1" d="M229.7,217c0.1,0,0.3,0,0.4,0h0c4.1,1.1,10.1,1.2,15.3,1.7c4.2,0.3,6.3,3.6,2.4,5c-3.9,1.3-7.7,2.3-7.7,8
		c0.5,2.8,0.4,4.3,0,4.9c0,0.1-0.1,0.2-0.2,0.2c0,0,0,0,0,0.1h0h-0.1v0.1h-0.1c-0.1,0-0.1,0.1-0.2,0.1c0,0.1-0.1,0.1-0.1,0.1
		c-1,0.1-2.3-0.9-3.4-1.3c-2.3-1.8-9.1-5.9-10.1-15C225.8,218.9,227.3,217.2,229.7,217L229.7,217z M263.6,186.2
		c0.9-0.1,1.9,0.1,2.9,0.7c1.5,0.8,2.3,2,2.2,3l0,0.1v0.1h-0.1c0,0.1,0,0.1,0,0.1l0,0.1c-0.1,0-0.1,0.1-0.2,0.2
		c-0.7,0.7-2.3,0.6-3.8-0.3c-1.4-0.8-2.3-2.2-2.2-3v-0.1c0-0.2,0.1-0.3,0.2-0.3c0-0.1,0-0.1,0.1-0.2l0,0c0-0.1,0.1-0.1,0.2-0.2
		C262.9,186.3,263.3,186.2,263.6,186.2L263.6,186.2L263.6,186.2z M210.3,172.9c0,0.1-0.1,0.1-0.2,0.1l0,0.1c-0.4,0.2-1,0.9-2,1.7
		c-1.9,2.1-2.1,3.6-2,7.7c0.1,0.5,3.4,9.8,6.3,16.4c1.9,6.9,3.7,14.7,2.4,22.1c-4.5,9.8-13.6,18.5-22.3,23.2c-4.5,1.4-8.3,1-9.3,0
		v-0.1c-2.6-1.6-2.7-4.7-2.5-5.3l0,0h0.1c7.3-5.2,15.8-9.3,22.4-23.1c1.9-5.3,2.5-8.5,0.6-16.7c-0.8-2.9-1.8-5.5-3.8-7.6
		c0,0,0,0,0-0.1c1.2-0.6,4.5,1.8,5,0.3c-0.8-4-3.4-9.2-6.4-11.8c-2.6-2.4-5.5-2.7-7.9-0.5c-2.7,1.5-3.2,6.9-2,11.7
		c1.4,3.4,5.4,4.1,8.2,11.2v0.1c0.1,0.4,0.9,5.4-0.5,7.5c-1.1,3.5-15.8,15.1-16.8,15.7l-0.1,0.1c0,0,0,0,0,0.1h-0.1h0h0h0
		c0-0.1,0-0.1,0-0.1c0-0.3,0.1-1.1,0-2.3c-0.1-2,0.8-6.9,0.8-7.8l0,0h-0.1v-0.1h-0.1c-4.8,3.2-6.4,12.7-7.3,15.6
		c-12.2,8.4-26.1,14.7-34.1,23.3c-4.2,6.4,28.7-7.5,32.5-9.2c0,0,0.1,0,0.2,0.1c0.7,0.7,0.7,3.5,2.9,6c3.4,4.7,10.7,7.5,17.7,5.8
		c11.9-4.3,18.7-12.4,25.7-21.4c1-1.4,2.5-2.5,3.9-1.4c4.8,10.7,18.6,18.2,36.4,19.1c4.1-5,2.2-7.5,0.5-8.5
		c-0.5-0.4-8.9-3.7-10.1-6.9c-0.8-3,1.2-5.6,5.2-7.6c11.4-1.3,22.7-3,33.6-6.4c0.1-3.7,2.2-9.2,3.7-11.5c1-1.6,1.7-1.8,1.9-2.1
		c0,0,0.1,0,0.1-0.1l0,0c0,0,0,0,0,0v-0.1c0,0,0-0.1,0-0.2l-1.9-1.1l-36.5-0.2c-0.4-0.1-0.8-0.4-1-0.5h0c0-0.1,0-0.1,0-0.1h0l0-0.1
		h-0.1v-0.1v-0.1v-0.1c0-0.1,0.1-0.1,0.1-0.1c0.2-0.3,0.6-0.5,1.1-0.7c8.8-1.1,24.2-3.7,25.2-18.7c-0.1-7.7-3.3-12.8-12.8-14.2
		c-7,0.6-12,7.3-11.2,14.8c-0.3,1.9,0.7,5.9-1.3,6.3c-13.4,1.3-28.1,9.7-28.6,15.7h0h-0.1h-0.1l-0.1,0.1c0,0,0,0,0,0h0h0H225
		l-0.1-0.1c-0.9-0.2-2-1.6-1.8-3.7c-0.5-10.4-3.9-22.1-9.2-31.2c-1.9-1.9-2.7-2.6-3.3-2.7h0H210.3L210.3,172.9L210.3,172.9z"/>
	<path class="st1" d="M112.4,136.3c4.2,1.9,12.1,1.1,11.8-5.6c0-0.6-0.1-2.7-0.2-3.2c-0.8-2.1-3.2-1.6-3.7,0.5
		c-0.2,0.6,0.3,1.7-0.3,2.1c-0.4,0.3-1.7,0.1-1.7-1.7c0-0.6-0.4-1.3-0.7-1.6c-0.2-0.2-0.4-0.3-0.9-0.3c-0.6,0.1-0.6,0.2-0.8,0.7
		c-0.2,0.5-0.3,1-0.3,1.5c-0.1,0.7-0.4,0.9-0.9,1c-0.5,0-0.4,0.1-0.9-0.2c-0.2-0.3-0.6-0.4-0.6-0.9c0-0.4-0.1-1.3-0.2-1.6
		c-0.2-0.3-0.6-0.5-1-0.6c-2.3,0-2.5,2.7-2.3,3.7C109.4,130.3,109.3,134.9,112.4,136.3z"/>
	<path class="st1" d="M235.7,188.5c4.2,1.9,14.2,0.8,11.8-5.7c0-0.6-0.1-2.7-0.3-3.2c-0.8-2-3.2-1.5-3.7,0.5
		c-0.1,0.7,0.3,1.8-0.3,2.2c-0.4,0.3-1.7,0-1.7-1.8c0-0.6-0.4-1.2-0.7-1.5c-0.3-0.2-0.4-0.3-0.9-0.3c-0.6,0.1-0.6,0.2-0.9,0.7
		c-0.1,0.4-0.3,0.9-0.3,1.5c-0.1,0.7-0.3,0.9-0.8,1c-0.5,0-0.4,0.1-0.8-0.2c-0.3-0.3-0.6-0.4-0.6-0.9c0-0.5-0.1-1.3-0.3-1.6
		c-0.2-0.3-0.6-0.5-1-0.6c-2.3,0-2.4,2.7-2.3,3.7C232.7,182.3,232.5,187,235.7,188.5z"/>
	<path class="st1" d="M307.5,166.8c4.2,1.9,12.1,1,11.7-5.7c0-0.5-0.1-2.6-0.2-3.2c-0.9-1.9-3.3-1.5-3.7,0.6c-0.2,0.6,0.2,1.7-0.4,2
		c-0.3,0.4-1.7,0.2-1.6-1.7c0-0.5-0.4-1.2-0.7-1.6c-0.2-0.1-0.4-0.1-0.9-0.1c-0.6,0-0.6,0.1-0.9,0.6c-0.2,0.5-0.3,1-0.3,1.6
		c-0.1,0.6-0.3,0.8-0.8,0.9c-0.5,0-0.4,0.1-0.8-0.2c-0.3-0.2-0.6-0.4-0.6-0.9c0-0.5-0.1-1.3-0.3-1.7c-0.3-0.2-0.6-0.3-1-0.4
		c-2.3,0-2.5,2.7-2.3,3.6C304.5,160.8,304.4,165.5,307.5,166.8z"/>
	<path class="st1" d="M344.7,221c-7.3,8.3-4.1,21.9-2.4,24.9c2.4,4.8,4.4,7.9,9,10.3c4.3,3.3,7.6,1.2,9.5-1c4.3-4.5,4.4-15.8,6.4-18
		c1.4-4.2,5-3.5,6.7-1.6c1.7,2.3,3.7,4,6.1,5.3c4,3.5,8.8,4.2,13.5,0.9c3.3-1.7,5.4-4.2,7.2-8.8c2.2-5.7,1-36.2,0.5-51.6
		c-0.2-1.2-4.2-21.2-4.2-21.4c0-0.2-0.6-10.2-1-12.5c-0.1-1-0.3-1.3,0.7-1.2c1.1,1,1.2,1.1,1.9,1.3c1.1,0.2,2-1.6,1.4-3.4
		c-3.3-6.1-6.7-12.3-10.1-18.3c-0.8-0.9-1.8-1.7-3.1,0.1c-1.2,1.1-2.5,2.9-2.4,5.5c0.3,4.4,1.1,8.9,1.3,13.3c1.4,7.4,2.7,15,4,22.5
		c1.2,16,1.6,30.7,2.9,46.7c-0.2,6.7-2.3,15.8-4.3,16.6c0,0-2.9,1.8-5-0.1c-1.5-0.6-7.4-9.8-7.4-9.8c-3-2.8-5-2-7.1,0
		c-5.9,5.7-8.5,16.3-12.5,23.7c-1.1,1.6-4,3.1-7.2-0.1C340.9,232.9,345.8,216.9,344.7,221z"/>
	<path class="st1" d="M309.4,127.5c3.7,1.5,6.4,9.1,5.5,12.8c-0.8,4.6-2.7,9.7-4.2,9c-1.5-0.6,1.1-4.6-0.4-8.8
		c-0.9-2.7-6-7.6-5.4-9.2C303.8,128.3,307.1,126.9,309.4,127.5z"/>
	<path class="st1" d="M356.8,225.6c0.8-9.1-0.5-14.8-0.8-20.2c-0.2-5.3-6-49-7.3-53.1c-1.4-7.6,5.7-1,4.9-5.5
		c-2.4-5.6-8.6-13.9-10.4-18.8c-1.2-2.1-0.7-4-3.3-0.5c-2.3,7.8-3.2,14.2-2.3,19.2c6.2,32.2,12.5,61.6,11.5,92.2
		C352,238.8,355.4,232.2,356.8,225.6z"/>
	<path class="st1" d="M421.1,138.3c3.5,1.8,5.5,11.3,5.1,14.1c-0.7,5-2.5,10.4-3.8,9.7c-1.4-0.6,0.3-7.4-0.4-9.5
		c-0.8-3-5.4-8.4-5-10C416.1,139.2,419.1,137.8,421.1,138.3z"/>
	<path class="st1" d="M166.1,208.2c3.2,1.2,5.2,8.3,4.8,10.3c-0.7,3.7-2.4,7.5-3.6,7.1c-1.4-0.5,0.3-5.5-0.4-7
		c-0.3-3.8-4.8-5.7-4.7-7.3C161.3,208.3,164,207.8,166.1,208.2z"/>
	<path class="st1" d="M78.3,125.2c4.9,1.4,5.1,8.6,4.8,10.7c-0.7,3.8-2.4,7.8-3.7,7.3c-1.3-0.4,0-5.6-0.7-7.2
		c-0.7-2.3-4.8-6.3-4.3-7.6C73.5,125.9,76.3,124.6,78.3,125.2z"/>
	<path class="st1" d="M174,158.8c-3.7,1.9-5.2,7.9-2.8,11.5c2.1,2.9,5.6,1.8,6,1.8c3.6,0.5,5.8-6.8,5.8-6.8c0,0,0.1-2-4.2,1.8
		c-1.8,0.4-2.1-0.3-2.5-1.3c-0.4-1.9-0.3-3.8,0.6-5.7C177.5,158.3,176.1,157.5,174,158.8z"/>
	<path class="st1" d="M201.8,122.4c-1.8,1.2-5.6,5.1-5.7,9.6c-0.2,2.5-0.6,2.5,1,4.1c1.2,1.7,2.4,1.5,4.8,0.2
		c1.3-0.9,1.8-1.6,2.3-3.3c0.6-2.9-3,1.3-3.5-1.8c-0.8-2.9,1.5-4.1,3.7-7C204.5,122.2,204.5,120.9,201.8,122.4z"/>
	<path class="st1" d="M224.3,126.4c-0.8,1.8-1.8,11.1-1.6,11.1c-0.7,2.8,2.9,4,4.5,0.4c2.4-6.5,2.4-9.3,2.5-12.1
		C229,121.6,226.2,121.8,224.3,126.4z"/>
	<path class="st1" d="M365.9,198.5c0.5-0.4,20-14.3,20-14.3c2-0.7,1.5,7.2,0.7,7c0.4,1.6-19.2,14.9-20.6,14.4
		C365,206.2,364,200.2,365.9,198.5z"/>
	<path class="st1" d="M383.7,198.3c3.5,1.7,4.8,11.7,4.4,14.5c0.1,5.3-3.3,9.6-4.6,8.9c-1.4-0.7,0.1-6.6-0.5-8.8
		c-0.8-3-3.8-8.5-3.2-10.1C378.7,199.6,381.6,197.7,383.7,198.3z"/>
	<path class="st1" d="M267.9,241.6c1.3-1.9,5.5-4.8,5.6-4.8c2-1,3.9,0.7,3.7,0.7c0.3,1.8-1.2,3.7-0.7,6.2c0.4,1,0.7,2.2,2.6,1.7
		c3.1-2.5,6-2.7,9-2.7c2.4,0,2.5,4.1,1,4.1c-5.7,1.2-8.3,2.9-12.4,4.4c-1.9,1.1-3.6-0.3-3.6-0.5c0-0.1-1.1-1-0.4-3.6
		c0.2-2-0.7-3.2-2.4-3.1c-1.3,0.8-2.4,1.2-3.1-0.2C267.1,242.8,267,242.2,267.9,241.6z"/>
	<path class="st1" d="M404.2,247c0.8,1.1,1.4,2-0.1,3.8c-1.4,1.3-2.3,1.9-3.7,3.3c-0.6,1.1-1,2.8,0.9,3.3c3.6,1,12.1-4.4,12.1-4.6
		c1.4-0.9,0.9-3,0.8-3c-0.8-0.9-2.6-0.4-3.7-0.4c-0.6,0-2.5-0.4-1.6-1.9c0.7-1.1,1-1.7,1.5-3c0.5-1.3,0.1-2.1-2-2.8
		c-2-0.4-2.9-0.1-5.2,0c-1.3,0.3-1.7,0.9-1.9,2.3C401.3,246.2,402.7,246.1,404.2,247z"/>
</g>
</svg>
