<svg xmlns="http://www.w3.org/2000/svg" width="22.3" height="21.252" viewBox="0 0 22.3 21.252"><defs><style>.a{fill:#011452;stroke:#011452;stroke-width:0.5px;}</style></defs><g transform="translate(0.25 0.25)"><path class="a" d="M38.954,28.485a.513.513,0,0,0-.726.726l4.632,4.633H27.467a.512.512,0,1,0,0,1.024H42.861L38.228,39.5a.513.513,0,0,0,.726.726l5.508-5.508a.514.514,0,0,0,0-.726l-5.508-5.508Z" transform="translate(-26.955 -23.981)"/><path class="a" d="M1.024,16.676a.512.512,0,1,0-1.024,0V20.25a.513.513,0,0,0,.512.512H5.892A.513.513,0,0,0,6.4,20.25V.522A.513.513,0,0,0,5.892.01H.512A.513.513,0,0,0,0,.522V4.1a.512.512,0,1,0,1.024,0V1.034H5.379v18.7H1.024Z" transform="translate(15.396 -0.01)"/></g></svg>