<svg xmlns="http://www.w3.org/2000/svg" width="15.429" height="12" viewBox="0 0 15.429 12"><defs><style>.a{fill:#5b6f8e;}</style></defs><g transform="translate(4 0)"><path class="a" d="M17.656,13.13c-.013.041-.021.085-.038.125a.671.671,0,0,1-.145.217l-5.337,5.336a.894.894,0,0,1-.216.145.667.667,0,0,1-.81-.987c.024-.037.055-.067.083-.1L16.058,13,11.194,8.136l-.083-.1c-.021-.039-.045-.075-.061-.115a.667.667,0,0,1,.987-.81c.036.025.067.055.1.083l5.337,5.336c.027.034.059.065.083.1a.668.668,0,0,1,.1.24.923.923,0,0,1,0,.261Z" transform="translate(-6.237 -7)"/><path class="a" d="M10.75,0H23.179a.75.75,0,1,1,0,1.5H10.75a.75.75,0,1,1,0-1.5Z" transform="translate(-14 5.25)"/></g></svg>