<svg xmlns="http://www.w3.org/2000/svg" width="18" height="18" viewBox="0 0 18 18"><defs><style>.a{fill:#d80027;}.b{fill:#f0f0f0;}</style></defs><circle class="a" cx="9" cy="9" r="9"/><g transform="translate(4.351 5.366)"><path class="b" d="M-760.467,198.509l.842,1.168,1.364-.445-.843,1.167.842,1.168-1.363-.447-.843,1.167v-1.443l-1.363-.447,1.364-.445Z" transform="translate(767.45 -196.805)"/><path class="b" d="M-925.173,154.053a2.91,2.91,0,0,1-2.9-2.919,2.91,2.91,0,0,1,2.9-2.919,2.872,2.872,0,0,1,1.379.351,3.544,3.544,0,0,0-2.495-1.025,3.581,3.581,0,0,0-3.569,3.593,3.581,3.581,0,0,0,3.569,3.593,3.544,3.544,0,0,0,2.495-1.025A2.871,2.871,0,0,1-925.173,154.053Z" transform="translate(929.857 -147.541)"/></g></svg>