<?xml version="1.0" encoding="utf-8"?>
<!-- Generator: Adobe Illustrator 22.1.0, SVG Export Plug-In . SVG Version: 6.00 Build 0)  -->
<svg version="1.1" id="Layer_1" xmlns="http://www.w3.org/2000/svg" xmlns:xlink="http://www.w3.org/1999/xlink" x="0px" y="0px"
	 viewBox="0 0 512 512" style="enable-background:new 0 0 512 512;" xml:space="preserve">
<style type="text/css">
	.st0{fill:#D80027;}
	.st1{fill:#F0F0F0;}
</style>
<circle class="st0" cx="256" cy="256" r="256"/>
<g>
	<polygon class="st1" points="347.8,185.2 379.6,229 431,212.3 399.2,256 430.9,299.8 379.5,283.1 347.7,326.8 347.7,272.7 
		296.3,256 347.7,239.3 	"/>
	<path class="st1" d="M261.1,365.4c-60.4,0-109.4-49-109.4-109.4s49-109.4,109.4-109.4c18.8,0,36.6,4.8,52,13.2
		c-24.3-23.7-57.5-38.4-94.1-38.4c-74.4,0-134.7,60.3-134.7,134.7S144.6,390.7,219,390.7c36.6,0,69.9-14.7,94.1-38.4
		C297.7,360.7,279.9,365.4,261.1,365.4z"/>
</g>
</svg>
