<?xml version="1.0" encoding="UTF-8" ?>
<!DOCTYPE svg PUBLIC "-//W3C//DTD SVG 1.1//EN" "http://www.w3.org/Graphics/SVG/1.1/DTD/svg11.dtd">
<svg width="1050pt" height="200pt" viewBox="0 0 1050 200" version="1.1" xmlns="http://www.w3.org/2000/svg">
<g id="#2e2e2eff">
<path fill="#2e2e2e" opacity="1.00" d=" M 785.50 15.45 C 790.63 7.34 801.45 3.40 810.50 6.81 C 817.57 9.81 823.33 16.12 825.07 23.69 C 826.26 29.04 826.24 34.56 826.30 40.01 C 826.27 71.93 826.31 103.86 826.26 135.79 C 838.17 136.09 850.09 135.85 862.00 135.91 C 868.30 135.90 875.29 135.28 880.66 139.26 C 885.46 142.47 887.47 148.35 887.78 153.89 C 888.14 159.78 887.77 166.22 884.27 171.21 C 880.82 176.00 874.78 178.18 869.04 178.07 C 847.35 178.08 825.67 178.10 803.99 178.06 C 796.99 178.20 790.13 174.58 786.25 168.78 C 783.15 164.13 781.52 158.56 781.59 152.97 C 781.54 118.32 781.70 83.66 781.38 49.01 C 781.25 43.00 781.87 37.00 781.65 30.99 C 781.58 25.62 781.71 19.68 785.50 15.45 Z" />
<path fill="#2e2e2e" opacity="1.00" d=" M 444.73 16.77 C 451.24 9.31 462.45 7.59 471.57 10.54 C 480.88 13.62 487.47 23.21 486.97 33.02 C 487.16 40.19 483.50 47.07 477.93 51.45 C 475.38 49.94 472.92 48.22 470.19 47.05 C 462.59 45.11 454.11 46.21 447.97 51.36 C 436.96 43.80 435.75 26.36 444.73 16.77 Z" />
<path fill="#2e2e2e" opacity="1.00" d=" M 511.50 19.45 C 516.95 10.75 529.10 6.89 538.35 11.64 C 544.09 14.93 549.56 20.16 550.44 27.03 C 551.05 31.36 552.39 35.60 552.33 40.00 C 552.24 71.60 552.33 103.20 552.27 134.79 C 567.18 135.17 582.11 134.69 597.02 135.02 C 604.14 135.21 611.10 140.06 612.80 147.15 C 614.46 153.90 614.49 161.36 611.69 167.82 C 608.80 174.09 601.69 177.27 595.03 177.07 C 573.35 177.08 551.67 177.10 529.99 177.06 C 523.48 177.18 517.09 174.08 513.10 168.95 C 509.44 164.11 507.53 158.03 507.59 151.98 C 507.57 129.65 507.60 107.32 507.58 85.00 C 507.61 68.34 507.08 51.68 507.62 35.03 C 507.65 29.65 507.66 23.69 511.50 19.45 Z" />
<path fill="#2e2e2e" opacity="1.00" d=" M 305.92 15.88 C 313.69 9.48 326.00 8.67 334.08 14.95 C 340.20 18.81 344.07 25.81 344.33 33.02 C 344.68 44.14 344.41 55.29 344.82 66.41 C 353.70 55.71 361.73 44.31 370.27 33.33 C 375.21 26.97 379.15 19.67 385.49 14.53 C 391.22 10.85 398.52 10.54 405.01 12.05 C 418.70 16.23 427.11 33.50 420.36 46.54 C 415.82 53.52 410.09 59.67 405.80 66.83 C 402.58 71.81 398.58 76.23 394.17 80.18 C 389.92 84.94 385.53 89.59 381.48 94.52 C 380.35 95.53 381.79 96.81 382.31 97.71 C 391.82 109.49 401.46 121.17 411.29 132.70 C 414.80 136.56 418.13 140.61 420.82 145.09 C 425.03 155.13 420.83 167.86 411.49 173.45 C 405.80 177.81 397.92 178.22 391.19 176.46 C 384.27 174.20 379.59 168.28 374.88 163.09 C 370.67 158.60 367.16 153.53 362.93 149.06 C 360.19 146.29 359.05 142.42 356.63 139.41 C 352.50 134.40 348.98 128.89 344.62 124.07 C 344.50 130.73 345.46 137.34 345.23 144.00 C 345.03 150.70 346.19 157.66 344.02 164.15 C 341.95 168.15 339.05 171.83 335.27 174.34 C 327.61 179.72 316.39 179.83 308.92 174.05 C 303.11 170.35 299.27 163.77 298.56 156.96 C 297.83 130.65 299.38 104.32 298.26 78.01 C 298.38 62.33 297.40 46.66 297.79 30.99 C 297.70 24.88 301.67 19.83 305.92 15.88 Z" />
<path fill="#2e2e2e" opacity="1.00" d=" M 673.74 12.81 C 690.92 10.99 708.64 10.97 725.33 15.94 C 741.34 20.93 754.94 33.85 759.42 50.19 C 761.02 56.99 761.76 63.96 761.73 70.95 C 761.82 93.64 761.73 116.33 761.77 139.02 C 761.71 143.81 761.78 148.97 759.21 153.21 C 754.66 160.63 747.13 165.53 739.55 169.41 C 722.15 177.10 702.62 177.26 683.94 176.50 C 672.24 175.12 660.16 173.34 649.84 167.25 C 640.84 162.62 633.39 154.94 629.42 145.59 C 625.83 137.96 625.24 129.35 625.56 121.04 C 625.93 113.03 627.74 104.90 632.02 98.02 C 639.49 85.89 653.61 80.14 666.98 77.33 C 683.09 74.73 699.47 73.99 715.54 71.30 C 716.33 65.26 713.56 58.85 707.88 56.22 C 697.41 51.14 685.18 51.81 673.93 53.29 C 666.92 53.85 660.94 58.13 654.02 59.02 C 647.03 59.28 639.82 55.60 636.59 49.24 C 633.41 42.97 632.99 34.89 636.85 28.80 C 639.36 24.42 643.70 21.50 648.08 19.19 C 656.07 15.28 665.00 13.97 673.74 12.81 M 688.87 110.06 C 684.54 110.99 680.19 112.86 677.13 116.15 C 673.80 120.70 674.38 127.67 678.27 131.74 C 681.87 136.06 687.82 136.95 693.10 137.36 C 700.78 137.57 708.54 136.35 715.73 133.63 C 716.26 124.85 716.21 116.02 715.74 107.25 C 706.83 108.65 697.77 108.63 688.87 110.06 Z" />
<path fill="#2e2e2e" opacity="1.00" d=" M 948.52 13.72 C 962.63 12.33 977.02 12.00 990.97 14.90 C 998.86 16.27 1006.59 19.06 1013.16 23.73 C 1022.25 29.31 1028.72 38.38 1032.54 48.22 C 1036.22 59.77 1035.76 72.03 1035.76 84.00 C 1035.76 103.02 1035.77 122.03 1035.76 141.05 C 1035.70 145.51 1035.60 150.28 1033.21 154.21 C 1030.30 158.89 1026.21 162.75 1021.59 165.70 C 1007.54 175.59 989.73 177.43 973.03 177.79 C 954.85 178.11 935.59 176.08 919.95 166.03 C 908.38 158.65 900.66 145.63 899.74 131.94 C 898.90 120.96 899.92 109.31 905.64 99.65 C 910.61 91.14 919.18 85.31 928.33 82.06 C 939.57 77.24 951.98 77.07 963.92 75.49 C 972.44 74.30 981.11 74.02 989.55 72.30 C 989.81 68.00 989.18 63.18 985.84 60.12 C 980.30 54.95 972.33 53.69 965.05 53.37 C 955.54 53.14 945.79 53.21 936.72 56.46 C 931.35 58.32 925.67 61.33 919.87 59.45 C 906.88 57.12 900.78 39.67 908.33 29.26 C 911.58 24.58 917.15 22.55 922.09 20.19 C 930.33 16.19 939.51 14.86 948.52 13.72 M 962.88 111.06 C 958.35 112.07 953.63 114.00 950.70 117.74 C 946.38 124.57 950.57 134.43 958.17 136.72 C 968.48 139.93 979.74 138.17 989.73 134.63 C 990.26 125.85 990.22 117.02 989.74 108.25 C 980.83 109.65 971.77 109.63 962.88 111.06 Z" />
<path fill="#2e2e2e" opacity="1.00" d=" M 459.48 59.77 C 469.13 58.21 478.60 64.68 482.51 73.27 C 484.70 79.95 484.14 87.09 485.19 93.97 C 485.30 114.64 485.45 135.32 485.31 156.00 C 485.49 166.46 476.63 175.98 466.22 176.72 C 461.19 176.92 455.68 176.91 451.52 173.66 C 445.68 170.35 441.55 164.28 441.14 157.51 C 439.54 140.06 440.69 122.50 440.42 105.00 C 440.54 95.06 439.95 85.01 441.45 75.16 C 444.22 67.40 451.18 61.00 459.48 59.77 Z" />
<path fill="#2e2e2e" opacity="1.00" d=" M 263.00 105.00 C 270.05 102.06 272.05 93.86 277.08 88.73 C 277.37 109.49 277.31 130.26 277.33 151.02 C 277.38 155.45 277.48 160.01 276.09 164.27 C 273.14 170.27 268.05 175.38 261.53 177.32 C 250.99 181.10 238.78 174.54 234.55 164.55 C 232.94 159.55 232.28 154.25 232.33 149.01 C 232.42 137.62 232.03 126.22 232.79 114.85 C 239.55 117.44 246.41 114.10 252.70 111.71 C 256.66 110.29 259.20 106.69 263.00 105.00 Z" />
</g>
<g id="#0027ffff">
<path fill="#0027ff" opacity="1.00" d=" M 42.99 12.83 C 56.84 9.14 72.31 18.38 76.22 32.10 C 72.97 33.24 69.60 34.00 66.20 34.47 C 66.21 35.04 66.23 36.16 66.24 36.73 C 68.48 37.49 70.80 38.09 72.89 39.22 C 74.64 40.79 73.28 43.23 73.06 45.14 C 68.73 45.05 64.40 45.03 60.08 44.95 C 59.62 49.26 59.58 53.61 59.94 57.93 C 64.46 59.24 69.57 59.92 74.03 58.05 C 76.76 54.27 78.33 49.69 81.80 46.41 C 83.82 51.12 85.35 56.03 87.30 60.77 C 83.09 61.09 78.62 60.73 74.74 62.70 C 71.66 64.24 68.35 65.17 65.06 66.14 C 61.18 67.24 59.62 71.38 57.10 74.12 C 54.54 77.56 49.64 79.32 48.87 83.94 C 47.01 92.47 46.36 101.39 48.04 110.02 C 42.77 96.70 37.67 83.31 32.21 70.07 C 29.65 61.76 25.30 54.12 23.13 45.69 C 18.76 31.84 28.58 15.33 42.99 12.83 Z" />
<path fill="#0027ff" opacity="1.00" d=" M 228.83 24.97 C 231.80 27.02 234.23 29.81 237.41 31.55 C 242.05 32.88 247.63 30.99 251.63 34.35 C 254.90 37.05 258.04 39.94 260.88 43.11 C 265.07 47.94 262.77 55.01 265.58 60.39 C 266.81 62.65 269.30 63.56 271.67 64.07 C 273.34 60.02 275.10 55.95 277.95 52.56 C 277.03 68.67 269.66 83.97 258.88 95.76 C 253.02 101.13 246.14 105.96 238.05 106.91 C 235.44 106.52 232.92 104.74 232.46 102.01 C 232.88 99.54 235.26 98.35 237.07 97.01 C 241.60 94.04 245.14 89.38 246.29 84.04 C 247.93 78.14 247.35 71.95 247.21 65.91 C 239.14 66.18 231.22 62.44 226.31 56.03 L 227.02 55.63 C 233.01 51.96 238.63 47.65 245.36 45.39 C 249.01 44.47 248.30 39.98 245.76 38.22 C 242.88 34.81 238.18 35.55 234.25 34.86 C 231.17 32.48 229.96 28.53 228.83 24.97 Z" />
<path fill="#0027ff" opacity="1.00" d=" M 165.21 40.23 C 166.08 39.17 167.44 38.68 168.75 39.26 C 171.69 42.91 168.03 48.32 171.19 51.85 C 173.37 54.52 173.91 58.47 172.82 61.66 C 170.42 64.03 166.44 63.77 163.38 62.86 C 163.00 57.85 161.78 52.96 161.17 47.99 C 160.46 44.71 163.12 42.29 165.21 40.23 Z" />
<path fill="#0027ff" opacity="1.00" d=" M 130.37 40.36 C 135.85 38.93 141.41 41.32 146.21 43.81 C 148.83 45.04 150.99 47.67 150.62 50.70 C 149.54 53.30 146.24 52.74 143.99 52.78 C 137.96 52.29 131.91 51.36 125.86 52.18 C 125.84 55.55 126.74 58.81 128.16 61.85 C 132.43 62.39 136.72 62.89 141.01 63.20 C 141.08 65.45 141.13 67.70 141.18 69.95 C 135.59 71.51 129.78 71.95 124.00 72.06 C 121.95 67.56 120.57 62.81 118.81 58.20 L 119.04 57.79 C 120.77 54.41 122.72 50.91 126.42 49.39 C 127.37 46.33 127.06 42.00 130.37 40.36 Z" />
<path fill="#0027ff" opacity="1.00" d=" M 164.83 75.97 C 167.81 77.99 170.22 80.82 173.40 82.55 C 178.23 83.46 183.32 82.86 187.97 84.80 C 190.53 92.79 194.84 100.10 197.05 108.21 C 201.28 118.00 204.75 128.09 208.90 137.92 C 209.83 140.85 211.79 143.76 211.26 146.93 C 205.70 158.13 198.99 168.74 190.81 178.22 C 186.42 179.68 181.83 179.17 177.51 177.76 C 169.89 176.13 163.86 170.33 160.18 163.70 C 164.20 160.10 163.56 154.57 162.90 149.76 C 161.72 149.78 160.57 149.93 159.43 150.21 C 158.55 152.12 158.00 154.16 157.49 156.19 C 154.74 150.04 152.01 143.84 149.89 137.43 C 153.72 133.38 158.41 130.24 162.18 126.15 C 165.30 121.22 166.94 115.46 168.05 109.78 C 162.01 111.61 156.76 116.34 150.05 115.23 C 150.33 111.22 151.47 106.97 149.84 103.10 C 146.83 95.41 141.05 88.49 141.27 79.83 C 148.39 85.73 149.76 95.43 153.60 103.36 C 154.58 105.06 155.18 107.44 157.13 108.23 C 163.35 107.85 167.99 103.17 173.09 100.15 C 176.31 98.16 180.18 97.45 183.24 95.21 C 185.14 93.05 183.01 90.17 181.22 88.72 C 178.32 85.77 173.95 86.58 170.27 85.84 C 167.15 83.51 165.97 79.52 164.83 75.97 Z" />
<path fill="#0027ff" opacity="1.00" d=" M 50.12 114.75 C 53.53 116.99 56.78 119.47 59.70 122.32 C 63.95 126.58 70.78 127.25 76.26 125.26 C 80.53 123.81 85.54 122.99 89.69 125.24 C 94.18 128.46 95.04 134.31 96.91 139.13 C 98.10 142.66 100.79 145.51 101.72 149.12 C 101.14 153.25 98.12 156.73 98.12 161.00 C 98.28 166.80 101.03 172.12 104.31 176.77 C 99.38 178.34 94.07 180.07 88.92 178.42 C 79.48 177.02 71.32 170.04 67.99 161.17 C 62.23 145.62 55.60 130.41 50.12 114.75 Z" />
</g>
<g id="#3656feff">
<path fill="#3656fe" opacity="1.00" d=" M 133.32 13.08 C 146.09 9.11 161.13 16.54 165.99 28.96 C 173.43 47.53 180.60 66.20 187.97 84.80 C 183.32 82.86 178.23 83.46 173.40 82.55 C 170.22 80.82 167.81 77.99 164.83 75.97 C 165.97 79.52 167.15 83.51 170.27 85.84 C 173.95 86.58 178.32 85.77 181.22 88.72 C 183.01 90.17 185.14 93.05 183.24 95.21 C 180.18 97.45 176.31 98.16 173.09 100.15 C 167.99 103.17 163.35 107.85 157.13 108.23 C 155.18 107.44 154.58 105.06 153.60 103.36 C 149.76 95.43 148.39 85.73 141.27 79.83 C 141.05 88.49 146.83 95.41 149.84 103.10 C 151.47 106.97 150.33 111.22 150.05 115.23 C 156.76 116.34 162.01 111.61 168.05 109.78 C 166.94 115.46 165.30 121.22 162.18 126.15 C 158.41 130.24 153.72 133.38 149.89 137.43 C 147.68 131.71 144.88 126.20 143.21 120.27 C 141.56 120.07 139.17 119.83 139.24 122.21 C 136.99 134.55 132.46 146.39 126.25 157.26 C 120.93 165.61 113.86 173.36 104.31 176.77 C 101.03 172.12 98.28 166.80 98.12 161.00 C 98.12 156.73 101.14 153.25 101.72 149.12 C 100.79 145.51 98.10 142.66 96.91 139.13 C 95.04 134.31 94.18 128.46 89.69 125.24 C 85.54 122.99 80.53 123.81 76.26 125.26 C 70.78 127.25 63.95 126.58 59.70 122.32 C 56.78 119.47 53.53 116.99 50.12 114.75 C 49.06 113.36 48.49 111.67 48.04 110.02 C 46.36 101.39 47.01 92.47 48.87 83.94 C 49.64 79.32 54.54 77.56 57.10 74.12 C 59.62 71.38 61.18 67.24 65.06 66.14 C 68.35 65.17 71.66 64.24 74.74 62.70 C 78.62 60.73 83.09 61.09 87.30 60.77 C 90.23 66.13 91.11 72.35 94.40 77.53 C 100.02 93.93 106.85 109.91 113.03 126.12 C 114.02 128.75 114.67 131.72 116.94 133.61 C 119.21 129.39 120.31 124.68 121.24 120.01 C 123.35 109.48 125.36 98.79 124.85 88.00 C 124.89 82.67 125.20 77.30 124.00 72.06 C 129.78 71.95 135.59 71.51 141.18 69.95 C 141.13 67.70 141.08 65.45 141.01 63.20 C 136.72 62.89 132.43 62.39 128.16 61.85 C 126.74 58.81 125.84 55.55 125.86 52.18 C 131.91 51.36 137.96 52.29 143.99 52.78 C 146.24 52.74 149.54 53.30 150.62 50.70 C 150.99 47.67 148.83 45.04 146.21 43.81 C 141.41 41.32 135.85 38.93 130.37 40.36 C 127.06 42.00 127.37 46.33 126.42 49.39 C 122.72 50.91 120.77 54.41 119.04 57.79 C 114.50 50.13 112.00 40.91 114.09 32.08 C 116.47 22.93 123.88 14.92 133.32 13.08 M 165.21 40.23 C 163.12 42.29 160.46 44.71 161.17 47.99 C 161.78 52.96 163.00 57.85 163.38 62.86 C 166.44 63.77 170.42 64.03 172.82 61.66 C 173.91 58.47 173.37 54.52 171.19 51.85 C 168.03 48.32 171.69 42.91 168.75 39.26 C 167.44 38.68 166.08 39.17 165.21 40.23 Z" />
<path fill="#3656fe" opacity="1.00" d=" M 222.40 47.47 C 216.51 32.05 228.89 11.96 246.00 12.53 C 255.60 11.67 265.25 16.52 270.64 24.44 C 273.75 29.15 276.37 34.34 277.13 40.00 C 277.65 44.13 279.09 48.44 277.95 52.56 C 275.10 55.95 273.34 60.02 271.67 64.07 C 269.30 63.56 266.81 62.65 265.58 60.39 C 262.77 55.01 265.07 47.94 260.88 43.11 C 258.04 39.94 254.90 37.05 251.63 34.35 C 247.63 30.99 242.05 32.88 237.41 31.55 C 234.23 29.81 231.80 27.02 228.83 24.97 C 229.96 28.53 231.17 32.48 234.25 34.86 C 238.18 35.55 242.88 34.81 245.76 38.22 C 248.30 39.98 249.01 44.47 245.36 45.39 C 238.63 47.65 233.01 51.96 227.02 55.63 C 224.13 54.27 223.58 50.25 222.40 47.47 Z" />
<path fill="#3656fe" opacity="1.00" d=" M 66.20 34.47 C 69.60 34.00 72.97 33.24 76.22 32.10 C 77.89 36.94 79.90 41.65 81.80 46.41 C 78.33 49.69 76.76 54.27 74.03 58.05 C 69.57 59.92 64.46 59.24 59.94 57.93 C 59.58 53.61 59.62 49.26 60.08 44.95 C 64.40 45.03 68.73 45.05 73.06 45.14 C 73.28 43.23 74.64 40.79 72.89 39.22 C 70.80 38.09 68.48 37.49 66.24 36.73 C 66.23 36.16 66.21 35.04 66.20 34.47 Z" />
<path fill="#3656fe" opacity="1.00" d=" M 211.26 146.93 L 212.13 146.42 C 213.34 156.41 209.98 167.44 201.68 173.60 C 198.61 176.21 194.61 177.20 190.81 178.22 C 198.99 168.74 205.70 158.13 211.26 146.93 Z" />
<path fill="#3656fe" opacity="1.00" d=" M 159.43 150.21 C 160.57 149.93 161.72 149.78 162.90 149.76 C 163.56 154.57 164.20 160.10 160.18 163.70 C 159.14 161.26 157.81 158.86 157.49 156.19 C 158.00 154.16 158.55 152.12 159.43 150.21 Z" />
</g>
</svg>
