<?xml version="1.0" standalone="no"?>
<!DOCTYPE svg PUBLIC "-//W3C//DTD SVG 20010904//EN"
 "http://www.w3.org/TR/2001/REC-SVG-20010904/DTD/svg10.dtd">
<svg version="1.0" xmlns="http://www.w3.org/2000/svg"
 width="700.000000pt" height="700.000000pt" viewBox="0 0 700.000000 700.000000"
 preserveAspectRatio="xMidYMid meet">
<metadata>
Created by potrace 1.14, written by Peter Selinger 2001-2017
</metadata>
<g transform="translate(0.000000,700.000000) scale(0.100000,-0.100000)"
fill="#000000" stroke="none">
<path d="M785 6880 c-211 -48 -411 -178 -531 -345 -59 -84 -119 -213 -146
-315 l-23 -85 0 -2635 c0 -2484 1 -2639 18 -2704 90 -353 353 -609 699 -680
69 -14 343 -16 2698 -16 2355 0 2629 2 2698 16 217 45 424 177 548 350 57 79
118 209 146 309 l23 80 3 2575 c2 1849 0 2603 -8 2674 -14 120 -40 207 -91
306 -121 232 -312 388 -569 463 l-75 22 -2655 2 c-2535 1 -2659 1 -2735 -17z
m1326 -1995 c111 -41 188 -92 241 -159 54 -68 66 -93 184 -395 58 -146 150
-378 204 -516 55 -137 172 -437 260 -665 89 -228 166 -427 172 -442 19 -51 43
-35 67 45 78 264 105 458 106 757 0 280 10 234 -117 565 -78 203 -81 214 -86
312 -6 122 16 205 76 298 74 115 157 171 309 211 l101 27 102 -21 c109 -22
175 -54 255 -124 62 -55 107 -128 164 -269 68 -169 241 -609 366 -929 57 -146
178 -455 269 -687 92 -232 171 -445 176 -474 25 -130 3 -241 -71 -365 -67
-111 -185 -189 -332 -220 -193 -41 -409 50 -520 218 -29 45 -201 463 -317 771
-25 64 -38 87 -51 87 -32 0 -47 -28 -69 -127 -44 -196 -148 -446 -248 -596
-163 -247 -422 -392 -642 -358 -164 24 -314 132 -385 275 -45 91 -849 2145
-864 2208 -25 103 -7 221 51 336 60 119 177 211 313 246 134 33 176 32 286 -9z
m3249 -1 c120 -34 202 -94 280 -206 169 -240 184 -556 45 -904 -131 -325 -402
-591 -623 -611 -55 -5 -61 -3 -90 23 -48 45 -49 66 -5 111 21 21 63 59 94 84
62 52 109 132 130 219 12 53 19 293 9 304 -3 3 -37 10 -75 16 -324 51 -503
418 -351 718 111 219 341 315 586 246z"/>
</g>
</svg>
